PathFileType	4	(X/Y/Z)	s09c0102.trc
DataRate	CameraRate	NumFrames	NumMarkers	Units	OrigDataRate	OrigDataStartFrame	OrigNumFrames
200	200	4	50	mm	200	1500	2000
Frame#	Time	racr			lacr			c7			jug			rlel			rdr			llel			ldr			s2			lic			ric			lasi			rasi			rpsi			lpsi			rgt			lgt			rth1			rth2			rth3			rth4			rlfc			rmfc			rsh1			rsh2			rsh3			rsh4			rlmal			rmmal			rcal			rtoe			rmt5			lth1			lth2			lth4			lth3			llfc			lmfc			llmal			lmmal			lcal			lmt5			lsh1			lsh2			lsh3			lsh4			ltoe			SBIKE			LBIKE			RBIKE			
		X1	Y1	Z1	X2	Y2	Z2	X3	Y3	Z3	X4	Y4	Z4	X5	Y5	Z5	X6	Y6	Z6	X7	Y7	Z7	X8	Y8	Z8	X9	Y9	Z9	X10	Y10	Z10	X11	Y11	Z11	X12	Y12	Z12	X13	Y13	Z13	X14	Y14	Z14	X15	Y15	Z15	X16	Y16	Z16	X17	Y17	Z17	X18	Y18	Z18	X19	Y19	Z19	X20	Y20	Z20	X21	Y21	Z21	X22	Y22	Z22	X23	Y23	Z23	X24	Y24	Z24	X25	Y25	Z25	X26	Y26	Z26	X27	Y27	Z27	X28	Y28	Z28	X29	Y29	Z29	X30	Y30	Z30	X31	Y31	Z31	X32	Y32	Z32	X33	Y33	Z33	X34	Y34	Z34	X35	Y35	Z35	X36	Y36	Z36	X37	Y37	Z37	X38	Y38	Z38	X39	Y39	Z39	X40	Y40	Z40	X41	Y41	Z41	X42	Y42	Z42	X43	Y43	Z43	X44	Y44	Z44	X45	Y45	Z45	X46	Y46	Z46	X47	Y47	Z47	X48	Y48	Z48	X49	Y49	Z49	X50	Y50	Z50	
1500	7.5000	506.808891	1227.826481	-33.811657	588.987755	1203.985151	-322.805554	524.139986	1261.643628	-142.153819	493.795264	1122.067058	-187.194174	520.328867	1008.981281	86.501122	705.433301	877.623075	-20.615263	536.020575	1042.080102	-541.780354	696.357183	883.093729	-440.212779	40.693597	1138.594005	-268.050752	187.691869	1113.288756	-400.589401	167.825641	1143.962230	-108.909427	216.791834	1057.242968	-369.502552	210.959795	1092.961207	-121.548595	66.389078	1173.016557	-209.001424	79.017054	1169.342931	-317.906448	155.038034	1042.359981	-52.082685	128.625667	976.949775	-433.621836	278.580184	993.297877	-67.554731	365.696283	989.340989	-78.277191	437.787312	939.281579	-76.255283	374.015282	1012.986715	-104.778578	521.276128	866.643696	-106.393828	508.088202	843.019933	-207.018899	457.951009	786.362710	-76.008543	430.588252	701.301360	-86.058874	365.844983	642.084730	-82.030542	452.920320	688.661943	-116.709534	309.400145	551.917466	-78.516282	309.083499	563.738732	-156.708359	223.137201	531.202392	-112.293119	480.951792	476.509132	-132.978011	401.785941	473.910604	-63.326750	192.567121	852.394659	-431.738994	252.030171	791.405485	-429.216303	285.546984	808.542807	-422.373124	274.225616	704.096039	-420.933932	303.913251	611.681357	-401.594710	320.711130	595.351663	-305.617101	125.379879	292.712989	-407.461906	151.067349	293.239806	-337.970221	54.492231	278.904245	-368.146366	195.453171	178.167966	-429.306227	254.338221	527.364299	-424.007970	234.446700	443.710034	-414.500119	173.581428	378.841121	-412.460430	258.915562	433.779591	-385.003299	286.605634	160.827084	-360.311905	-64.751657	852.807103	-239.785824	21.154512	84.256245	-442.001448	21.183568	84.014070	-43.809374	
1501	7.5050	508.229566	1227.451904	-35.398222	588.005248	1203.734252	-325.219398	523.603131	1261.855925	-143.102533	493.817862	1122.026555	-189.275328	521.362173	1009.027038	85.893385	705.472990	877.743272	-20.695506	534.287058	1040.331004	-542.653964	696.009275	883.088158	-440.579837	40.042951	1139.049733	-265.519688	185.507175	1113.928861	-399.349488	168.682180	1144.105407	-106.582905	215.048708	1057.772949	-368.569632	211.466456	1092.993889	-120.368821	66.342954	1173.266059	-206.674092	77.834352	1170.014950	-315.683595	155.360235	1040.861868	-50.919081	126.920654	977.788814	-432.491023	279.111500	990.209159	-66.584571	365.898944	985.408411	-77.480595	437.450454	933.964894	-76.990113	374.723634	1009.030256	-103.810807	521.877283	859.829842	-109.029935	506.821989	837.333146	-207.716122	458.358097	779.030818	-75.821058	432.485141	693.623830	-85.928808	368.825113	633.282127	-81.607640	454.646065	681.566284	-117.016814	314.331708	541.890130	-78.393161	313.314384	554.021043	-156.278341	228.330832	518.413388	-111.756259	487.865453	473.420571	-132.977552	409.235728	467.797598	-62.563705	192.394532	853.776929	-430.539558	252.857521	793.752728	-428.880749	286.148612	811.307890	-422.728647	276.524918	706.729590	-420.990319	307.271699	614.431444	-402.000737	324.197583	598.376977	-306.132788	120.006735	300.523042	-407.150479	146.083607	300.430180	-337.624098	48.872651	288.390924	-367.615732	187.410169	184.575613	-429.130253	255.357298	531.463612	-424.272487	233.169623	448.396979	-414.577461	170.492411	385.201316	-412.253130	257.279639	437.899325	-385.011383	278.250403	164.968947	-360.206531	-64.728023	852.813981	-239.705798	21.162468	84.289482	-441.992414	21.175274	84.014253	-43.798400	
1502	7.5100	509.716965	1226.979323	-37.155062	586.906191	1203.518418	-328.036229	524.616086	1261.462923	-146.060757	493.570151	1121.967961	-191.308414	521.912533	1009.578421	85.321406	705.531252	877.691676	-20.855271	532.354198	1038.490710	-543.711543	695.546709	883.114458	-440.911581	39.294476	1139.419845	-263.010974	183.254383	1114.509855	-398.063775	169.374172	1143.759023	-104.883398	213.205466	1058.320482	-367.649297	212.117324	1092.767642	-119.137908	66.224211	1173.323875	-204.304431	76.693341	1170.538152	-313.347086	155.675376	1039.042979	-49.743609	125.513257	978.330999	-430.961607	279.460027	986.577507	-65.687498	366.097991	980.613296	-76.857817	437.141268	928.458465	-76.402107	375.315422	1004.399422	-103.230127	520.720677	855.117467	-108.089914	504.850472	830.080648	-207.833213	458.573259	771.100776	-75.755174	434.257627	684.993977	-86.033752	371.668781	623.660453	-81.383334	456.307105	673.759778	-117.190114	319.143298	531.460792	-78.072414	317.840891	543.764080	-156.250804	233.490040	505.050450	-111.438400	494.699326	469.455088	-132.647650	416.010443	460.706928	-62.430458	192.639384	855.402526	-429.379976	254.099500	796.334278	-428.518199	287.108261	814.394683	-422.698094	279.247745	709.711017	-421.238807	311.008644	617.411281	-402.489474	327.864242	601.620122	-306.680573	115.100986	308.912315	-406.781581	141.362287	308.203041	-337.218820	43.830255	298.426262	-367.018608	179.713486	191.531003	-428.962505	256.801500	535.715248	-424.427860	232.261929	453.330219	-414.467019	167.822572	391.993269	-412.018042	256.078677	442.187055	-384.842077	270.230283	169.660895	-360.224755	-64.701732	852.843761	-239.588828	21.153666	84.344919	-441.976667	21.155988	84.027137	-43.799604	
1503	7.5150	511.276337	1226.454819	-39.112596	585.641086	1203.464227	-331.320899	525.590187	1261.159318	-149.357245	493.441517	1121.936144	-193.559091	522.079920	1010.433164	84.726760	705.728389	878.341650	-20.850524	530.406190	1036.414349	-544.820657	695.057060	883.060335	-441.322746	38.582160	1139.501657	-260.427753	180.902565	1115.059675	-396.860157	170.318734	1143.282460	-102.910430	211.399460	1058.794821	-366.765275	212.706280	1092.423947	-117.915148	66.106208	1173.176981	-201.934276	75.365311	1170.665303	-310.978090	155.855188	1036.803933	-48.802413	124.084845	978.916602	-429.780325	279.803133	982.167934	-64.893243	366.285095	975.347487	-76.409688	436.503190	922.082504	-76.214991	375.739887	1000.493464	-101.622331	517.906660	847.157221	-107.452192	503.005172	822.616805	-207.821530	458.608810	762.529939	-75.892580	435.820630	675.932686	-86.188824	374.424310	613.524560	-81.248130	457.731822	665.256100	-117.586160	324.245685	519.783218	-78.621587	322.062199	532.938153	-156.011252	238.627231	491.357277	-111.168046	500.947976	464.671888	-132.422074	422.589969	453.254000	-62.109982	193.255527	857.205219	-428.563413	255.734805	799.197057	-428.046984	288.457090	817.790052	-422.407383	282.392275	713.014001	-421.624839	315.125448	620.555892	-403.048246	331.731940	605.035463	-307.279630	110.406749	317.587350	-406.579199	137.095958	316.428223	-336.803889	39.263090	308.902427	-366.301467	172.451223	198.992416	-428.752276	258.557208	540.260916	-424.660313	231.777932	458.785003	-414.521107	165.609520	399.165744	-411.754173	255.194210	446.930103	-384.749199	262.627991	174.881649	-360.319885	-64.641401	852.868955	-239.445571	21.125842	84.355782	-441.921113	21.176402	84.009452	-43.777164	
